<svg width="505" height="147" viewBox="0 0 505 147" fill="none" xmlns="http://www.w3.org/2000/svg">
<path d="M71.328 39.352V46.456C71.328 54.264 68.96 59.64 64.224 62.584C59.488 65.528 52.16 67 42.24 67H25.44V91H6.24V19H42.24C52.16 19 59.488 20.568 64.224 23.704C68.96 26.84 71.328 32.056 71.328 39.352ZM52.128 45.88V40.216C52.128 37.976 51.424 36.248 50.016 35.032C48.672 33.752 46.272 33.112 42.816 33.112H25.44V52.888H42.816C46.272 52.888 48.672 52.28 50.016 51.064C51.424 49.784 52.128 48.056 52.128 45.88ZM81.4388 19H99.6788V91H81.4388V19ZM166.598 59.8V91H127.142C121.382 91 116.966 89.752 113.894 87.256C110.822 84.76 109.286 81.496 109.286 77.464C109.286 73.048 110.79 69.528 113.798 66.904C116.806 64.216 120.422 61.432 124.646 58.552L140.966 47.32H110.63V33.4H135.878C146.886 33.4 154.758 35.736 159.494 40.408C164.23 45.016 166.598 51.48 166.598 59.8ZM132.326 77.08H149.318V57.976L131.942 71.512C130.854 72.344 130.086 72.984 129.638 73.432C129.19 73.816 128.966 74.328 128.966 74.968C128.966 75.672 129.222 76.216 129.734 76.6C130.246 76.92 131.11 77.08 132.326 77.08ZM174.045 47.32V33.4H183.357V21.688H200.157V33.4H231.357V47.32H200.157V70.648C200.157 73.08 200.669 74.776 201.693 75.736C202.717 76.632 204.381 77.08 206.685 77.08H215.997V91H204.573C196.637 91 190.941 89.336 187.485 86.008C184.093 82.616 182.397 77.496 182.397 70.648V47.32H174.045ZM232.962 91V47.32H224.13V33.4H233.058C233.506 27.384 235.298 22.84 238.434 19.768C241.57 16.696 246.85 15.16 254.274 15.16H267.522V27.064H253.506C252.098 27.064 251.042 27.416 250.338 28.12C249.634 28.824 249.282 29.976 249.282 31.576V33.4H267.522V47.32H251.202V91H232.962ZM334.74 58.744V65.656C334.74 73.656 332.308 80.056 327.444 84.856C322.644 89.592 315.764 91.96 306.804 91.96H300.084C291.124 91.96 284.212 89.592 279.348 84.856C274.484 80.056 272.052 73.656 272.052 65.656V58.744C272.052 50.744 274.484 44.376 279.348 39.64C284.212 34.84 291.124 32.44 300.084 32.44H306.804C315.764 32.44 322.644 34.84 327.444 39.64C332.308 44.376 334.74 50.744 334.74 58.744ZM316.02 57.208C316.02 53.496 315.316 50.744 313.908 48.952C312.564 47.096 310.132 46.168 306.612 46.168H300.276C296.756 46.168 294.292 47.096 292.884 48.952C291.476 50.744 290.772 53.496 290.772 57.208V67.096C290.772 70.872 291.476 73.688 292.884 75.544C294.292 77.336 296.756 78.232 300.276 78.232H306.612C310.132 78.232 312.564 77.336 313.908 75.544C315.316 73.688 316.02 70.872 316.02 67.096V57.208ZM343.818 54.808C343.818 52.056 344.234 49.4 345.066 46.84C345.898 44.28 347.21 42.008 349.002 40.024C350.794 38.04 353.098 36.44 355.914 35.224C358.794 34.008 362.218 33.4 366.186 33.4H383.082V47.32H370.314C367.05 47.32 364.842 47.896 363.69 49.048C362.602 50.2 362.058 52.184 362.058 55V91H343.818V54.808ZM390.131 91V33.4H458.483C467.251 33.4 473.587 35.512 477.491 39.736C481.395 43.96 483.347 49.688 483.347 56.92V91H465.107V56.44C465.107 53.496 464.595 51.416 463.571 50.2C462.611 48.92 460.723 48.28 457.907 48.28H445.811V91H427.571V48.28H408.371V91H390.131Z" fill="#4096FF"/>
<path d="M244.28 137.24C242.2 137.24 240.2 136.907 238.28 136.24C236.387 135.547 234.92 134.667 233.88 133.6L235.04 131.32C236.027 132.28 237.347 133.093 239 133.76C240.68 134.4 242.44 134.72 244.28 134.72C246.04 134.72 247.467 134.507 248.56 134.08C249.68 133.627 250.493 133.027 251 132.28C251.533 131.533 251.8 130.707 251.8 129.8C251.8 128.707 251.48 127.827 250.84 127.16C250.227 126.493 249.413 125.973 248.4 125.6C247.387 125.2 246.267 124.853 245.04 124.56C243.813 124.267 242.587 123.96 241.36 123.64C240.133 123.293 239 122.84 237.96 122.28C236.947 121.72 236.12 120.987 235.48 120.08C234.867 119.147 234.56 117.933 234.56 116.44C234.56 115.053 234.92 113.787 235.64 112.64C236.387 111.467 237.52 110.533 239.04 109.84C240.56 109.12 242.507 108.76 244.88 108.76C246.453 108.76 248.013 108.987 249.56 109.44C251.107 109.867 252.44 110.467 253.56 111.24L252.56 113.6C251.36 112.8 250.08 112.213 248.72 111.84C247.387 111.467 246.093 111.28 244.84 111.28C243.16 111.28 241.773 111.507 240.68 111.96C239.587 112.413 238.773 113.027 238.24 113.8C237.733 114.547 237.48 115.4 237.48 116.36C237.48 117.453 237.787 118.333 238.4 119C239.04 119.667 239.867 120.187 240.88 120.56C241.92 120.933 243.053 121.267 244.28 121.56C245.507 121.853 246.72 122.173 247.92 122.52C249.147 122.867 250.267 123.32 251.28 123.88C252.32 124.413 253.147 125.133 253.76 126.04C254.4 126.947 254.72 128.133 254.72 129.6C254.72 130.96 254.347 132.227 253.6 133.4C252.853 134.547 251.707 135.48 250.16 136.2C248.64 136.893 246.68 137.24 244.28 137.24ZM277.078 137V111.56H267.238V109H289.878V111.56H280.038V137H277.078ZM300.596 137L313.396 109H316.316L329.116 137H325.996L314.236 110.72H315.436L303.676 137H300.596ZM305.636 129.52L306.516 127.12H322.796L323.676 129.52H305.636ZM344.216 137V109H354.696C357.07 109 359.11 109.387 360.816 110.16C362.523 110.907 363.83 112 364.736 113.44C365.67 114.853 366.136 116.573 366.136 118.6C366.136 120.573 365.67 122.28 364.736 123.72C363.83 125.133 362.523 126.227 360.816 127C359.11 127.747 357.07 128.12 354.696 128.12H345.856L347.176 126.76V137H344.216ZM363.336 137L356.136 126.84H359.336L366.576 137H363.336ZM347.176 127L345.856 125.6H354.616C357.416 125.6 359.536 124.987 360.976 123.76C362.443 122.533 363.176 120.813 363.176 118.6C363.176 116.36 362.443 114.627 360.976 113.4C359.536 112.173 357.416 111.56 354.616 111.56H345.856L347.176 110.16V127ZM389.031 137V111.56H379.191V109H401.831V111.56H391.991V137H389.031ZM419.669 121.52H434.469V124.04H419.669V121.52ZM419.989 134.44H436.829V137H417.029V109H436.229V111.56H419.989V134.44ZM454.255 137V109H464.735C467.109 109 469.149 109.387 470.855 110.16C472.562 110.907 473.869 112 474.775 113.44C475.709 114.853 476.175 116.573 476.175 118.6C476.175 120.573 475.709 122.28 474.775 123.72C473.869 125.133 472.562 126.227 470.855 127C469.149 127.747 467.109 128.12 464.735 128.12H455.895L457.215 126.76V137H454.255ZM473.375 137L466.175 126.84H469.375L476.615 137H473.375ZM457.215 127L455.895 125.6H464.655C467.455 125.6 469.575 124.987 471.015 123.76C472.482 122.533 473.215 120.813 473.215 118.6C473.215 116.36 472.482 114.627 471.015 113.4C469.575 112.173 467.455 111.56 464.655 111.56H455.895L457.215 110.16V127Z" fill="white"/>
</svg>
