<svg width="639" height="147" viewBox="0 0 639 147" fill="none" xmlns="http://www.w3.org/2000/svg">
<path d="M205.328 39.352V46.456C205.328 54.264 202.96 59.64 198.224 62.584C193.488 65.528 186.16 67 176.24 67H159.44V91H140.24V19H176.24C186.16 19 193.488 20.568 198.224 23.704C202.96 26.84 205.328 32.056 205.328 39.352ZM186.128 45.88V40.216C186.128 37.976 185.424 36.248 184.016 35.032C182.672 33.752 180.272 33.112 176.816 33.112H159.44V52.888H176.816C180.272 52.888 182.672 52.28 184.016 51.064C185.424 49.784 186.128 48.056 186.128 45.88ZM215.439 19H233.679V91H215.439V19ZM300.598 59.8V91H261.142C255.382 91 250.966 89.752 247.894 87.256C244.822 84.76 243.286 81.496 243.286 77.464C243.286 73.048 244.79 69.528 247.798 66.904C250.806 64.216 254.422 61.432 258.646 58.552L274.966 47.32H244.63V33.4H269.878C280.886 33.4 288.758 35.736 293.494 40.408C298.23 45.016 300.598 51.48 300.598 59.8ZM266.326 77.08H283.318V57.976L265.942 71.512C264.854 72.344 264.086 72.984 263.638 73.432C263.19 73.816 262.966 74.328 262.966 74.968C262.966 75.672 263.222 76.216 263.734 76.6C264.246 76.92 265.11 77.08 266.326 77.08ZM308.045 47.32V33.4H317.357V21.688H334.157V33.4H365.357V47.32H334.157V70.648C334.157 73.08 334.669 74.776 335.693 75.736C336.717 76.632 338.381 77.08 340.685 77.08H349.997V91H338.573C330.637 91 324.941 89.336 321.485 86.008C318.093 82.616 316.397 77.496 316.397 70.648V47.32H308.045ZM366.962 91V47.32H358.13V33.4H367.058C367.506 27.384 369.298 22.84 372.434 19.768C375.57 16.696 380.85 15.16 388.274 15.16H401.522V27.064H387.506C386.098 27.064 385.042 27.416 384.338 28.12C383.634 28.824 383.282 29.976 383.282 31.576V33.4H401.522V47.32H385.202V91H366.962ZM468.74 58.744V65.656C468.74 73.656 466.308 80.056 461.444 84.856C456.644 89.592 449.764 91.96 440.804 91.96H434.084C425.124 91.96 418.212 89.592 413.348 84.856C408.484 80.056 406.052 73.656 406.052 65.656V58.744C406.052 50.744 408.484 44.376 413.348 39.64C418.212 34.84 425.124 32.44 434.084 32.44H440.804C449.764 32.44 456.644 34.84 461.444 39.64C466.308 44.376 468.74 50.744 468.74 58.744ZM450.02 57.208C450.02 53.496 449.316 50.744 447.908 48.952C446.564 47.096 444.132 46.168 440.612 46.168H434.276C430.756 46.168 428.292 47.096 426.884 48.952C425.476 50.744 424.772 53.496 424.772 57.208V67.096C424.772 70.872 425.476 73.688 426.884 75.544C428.292 77.336 430.756 78.232 434.276 78.232H440.612C444.132 78.232 446.564 77.336 447.908 75.544C449.316 73.688 450.02 70.872 450.02 67.096V57.208ZM477.818 54.808C477.818 52.056 478.234 49.4 479.066 46.84C479.898 44.28 481.21 42.008 483.002 40.024C484.794 38.04 487.098 36.44 489.914 35.224C492.794 34.008 496.218 33.4 500.186 33.4H517.082V47.32H504.314C501.05 47.32 498.842 47.896 497.69 49.048C496.602 50.2 496.058 52.184 496.058 55V91H477.818V54.808ZM524.131 91V33.4H592.483C601.251 33.4 607.587 35.512 611.491 39.736C615.395 43.96 617.347 49.688 617.347 56.92V91H599.107V56.44C599.107 53.496 598.595 51.416 597.571 50.2C596.611 48.92 594.723 48.28 591.907 48.28H579.811V91H561.571V48.28H542.371V91H524.131Z" fill="#4096FF"/>
<rect y="17" width="126" height="121" fill="#4096FF"/>
<path d="M98.4696 66.4641L50.234 42.4161C41.3972 38.0105 31 44.4178 31 54.269V99.731C31 109.582 41.3972 115.989 50.234 111.584L98.4696 87.5359C107.177 83.1949 107.177 70.8051 98.4696 66.4641Z" fill="white"/>
<path d="M378.28 137.24C376.2 137.24 374.2 136.907 372.28 136.24C370.387 135.547 368.92 134.667 367.88 133.6L369.04 131.32C370.027 132.28 371.347 133.093 373 133.76C374.68 134.4 376.44 134.72 378.28 134.72C380.04 134.72 381.467 134.507 382.56 134.08C383.68 133.627 384.493 133.027 385 132.28C385.533 131.533 385.8 130.707 385.8 129.8C385.8 128.707 385.48 127.827 384.84 127.16C384.227 126.493 383.413 125.973 382.4 125.6C381.387 125.2 380.267 124.853 379.04 124.56C377.813 124.267 376.587 123.96 375.36 123.64C374.133 123.293 373 122.84 371.96 122.28C370.947 121.72 370.12 120.987 369.48 120.08C368.867 119.147 368.56 117.933 368.56 116.44C368.56 115.053 368.92 113.787 369.64 112.64C370.387 111.467 371.52 110.533 373.04 109.84C374.56 109.12 376.507 108.76 378.88 108.76C380.453 108.76 382.013 108.987 383.56 109.44C385.107 109.867 386.44 110.467 387.56 111.24L386.56 113.6C385.36 112.8 384.08 112.213 382.72 111.84C381.387 111.467 380.093 111.28 378.84 111.28C377.16 111.28 375.773 111.507 374.68 111.96C373.587 112.413 372.773 113.027 372.24 113.8C371.733 114.547 371.48 115.4 371.48 116.36C371.48 117.453 371.787 118.333 372.4 119C373.04 119.667 373.867 120.187 374.88 120.56C375.92 120.933 377.053 121.267 378.28 121.56C379.507 121.853 380.72 122.173 381.92 122.52C383.147 122.867 384.267 123.32 385.28 123.88C386.32 124.413 387.147 125.133 387.76 126.04C388.4 126.947 388.72 128.133 388.72 129.6C388.72 130.96 388.347 132.227 387.6 133.4C386.853 134.547 385.707 135.48 384.16 136.2C382.64 136.893 380.68 137.24 378.28 137.24ZM411.078 137V111.56H401.238V109H423.878V111.56H414.038V137H411.078ZM434.596 137L447.396 109H450.316L463.116 137H459.996L448.236 110.72H449.436L437.676 137H434.596ZM439.636 129.52L440.516 127.12H456.796L457.676 129.52H439.636ZM478.216 137V109H488.696C491.07 109 493.11 109.387 494.816 110.16C496.523 110.907 497.83 112 498.736 113.44C499.67 114.853 500.136 116.573 500.136 118.6C500.136 120.573 499.67 122.28 498.736 123.72C497.83 125.133 496.523 126.227 494.816 127C493.11 127.747 491.07 128.12 488.696 128.12H479.856L481.176 126.76V137H478.216ZM497.336 137L490.136 126.84H493.336L500.576 137H497.336ZM481.176 127L479.856 125.6H488.616C491.416 125.6 493.536 124.987 494.976 123.76C496.443 122.533 497.176 120.813 497.176 118.6C497.176 116.36 496.443 114.627 494.976 113.4C493.536 112.173 491.416 111.56 488.616 111.56H479.856L481.176 110.16V127ZM523.031 137V111.56H513.191V109H535.831V111.56H525.991V137H523.031ZM553.669 121.52H568.469V124.04H553.669V121.52ZM553.989 134.44H570.829V137H551.029V109H570.229V111.56H553.989V134.44ZM588.255 137V109H598.735C601.109 109 603.149 109.387 604.855 110.16C606.562 110.907 607.869 112 608.775 113.44C609.709 114.853 610.175 116.573 610.175 118.6C610.175 120.573 609.709 122.28 608.775 123.72C607.869 125.133 606.562 126.227 604.855 127C603.149 127.747 601.109 128.12 598.735 128.12H589.895L591.215 126.76V137H588.255ZM607.375 137L600.175 126.84H603.375L610.615 137H607.375ZM591.215 127L589.895 125.6H598.655C601.455 125.6 603.575 124.987 605.015 123.76C606.482 122.533 607.215 120.813 607.215 118.6C607.215 116.36 606.482 114.627 605.015 113.4C603.575 112.173 601.455 111.56 598.655 111.56H589.895L591.215 110.16V127Z" fill="black"/>
</svg>
